<svg width="16" height="16" viewBox="0 0 16 16" fill="none" xmlns="http://www.w3.org/2000/svg">
<path fill-rule="evenodd" clip-rule="evenodd" d="M2.41699 2.49609C2.21808 2.49609 2.02731 2.57511 1.88666 2.71576C1.75055 2.85188 1.67215 3.03492 1.66724 3.22687C1.83973 5.95982 3.00319 8.53638 4.93994 10.4731C6.8767 12.4099 9.45327 13.5734 12.1862 13.7458C12.3782 13.7409 12.5612 13.6625 12.6973 13.5264C12.838 13.3858 12.917 13.195 12.917 12.9961V10.5039L10.2315 9.42967L9.43511 10.757C9.23429 11.0917 8.81032 11.2164 8.46026 11.0437C6.68355 10.1675 5.24559 8.72954 4.36935 6.95283C4.1967 6.60276 4.32142 6.17879 4.65612 5.97797L5.98342 5.1816L4.90922 2.49609H2.41699ZM0.826002 1.6551C1.24796 1.23315 1.82026 0.996094 2.41699 0.996094H5.41699C5.72367 0.996094 5.99945 1.18281 6.11335 1.46755L7.61335 5.21755C7.75006 5.55934 7.61852 5.94982 7.30286 6.13921L6.04736 6.89251C6.66526 7.90023 7.51286 8.74782 8.52057 9.36572L9.27387 8.11022C9.46327 7.79457 9.85375 7.66302 10.1955 7.79974L13.9455 9.29974C14.2303 9.41363 14.417 9.68941 14.417 9.99609V12.9961C14.417 13.5928 14.1799 14.1651 13.758 14.5871C13.336 15.009 12.7637 15.2461 12.167 15.2461C12.1518 15.2461 12.1366 15.2456 12.1215 15.2447C9.0131 15.0558 6.08131 13.7358 3.87928 11.5338C1.67726 9.33178 0.357272 6.39999 0.168373 3.29159C0.167453 3.27644 0.166992 3.26127 0.166992 3.24609C0.166992 2.64936 0.404045 2.07706 0.826002 1.6551Z" fill="#465953"/>
<path fill-rule="evenodd" clip-rule="evenodd" d="M9.16699 3.99609C9.16699 3.58188 9.50278 3.24609 9.91699 3.24609C10.5137 3.24609 11.086 3.48315 11.508 3.9051C11.9299 4.32706 12.167 4.89936 12.167 5.49609C12.167 5.91031 11.8312 6.24609 11.417 6.24609C11.0028 6.24609 10.667 5.91031 10.667 5.49609C10.667 5.29718 10.588 5.10642 10.4473 4.96576C10.3067 4.82511 10.1159 4.74609 9.91699 4.74609C9.50278 4.74609 9.16699 4.41031 9.16699 3.99609Z" fill="#465953"/>
<path fill-rule="evenodd" clip-rule="evenodd" d="M9.16699 0.996094C9.16699 0.58188 9.50278 0.246094 9.91699 0.246094C11.3094 0.246094 12.6447 0.799217 13.6293 1.78378C14.6139 2.76835 15.167 4.10371 15.167 5.49609C15.167 5.91031 14.8312 6.24609 14.417 6.24609C14.0028 6.24609 13.667 5.91031 13.667 5.49609C13.667 4.50153 13.2719 3.5477 12.5686 2.84444C11.8654 2.14118 10.9116 1.74609 9.91699 1.74609C9.50278 1.74609 9.16699 1.41031 9.16699 0.996094Z" fill="#465953"/>
</svg>
